<mxfile host="app.diagrams.net" modified="2023-04-19T07:08:04.820Z" agent="Mozilla/5.0 (Macintosh; Intel Mac OS X 10_15_7) AppleWebKit/605.1.15 (KHTML, like Gecko) Version/16.3 Safari/605.1.15" version="21.1.9" etag="CDiDFSrAXmJtq1i_oEB3" type="github">
  <diagram name="Page-1" id="oc3d9dmMdkhjh-pj6o6v">
    <mxGraphModel>
      <root>
        <mxCell id="0" />
        <mxCell id="1" parent="0" />
      </root>
    </mxGraphModel>
  </diagram>
</mxfile>
